<svg width="16" height="16" viewBox="0 0 16 16" fill="none" xmlns="http://www.w3.org/2000/svg">
<path d="M11.1776 8.31752C11.1726 7.40002 11.5876 6.70752 12.4276 6.19752C11.9576 5.52502 11.2476 5.15502 10.3101 5.08252C9.42256 5.01252 8.45256 5.60002 8.09756 5.60002C7.72256 5.60002 6.86256 5.10752 6.18756 5.10752C4.79256 5.13002 3.31006 6.22002 3.31006 8.43752C3.31006 9.09252 3.43006 9.77002 3.67006 10.4675C3.99006 11.385 5.14506 13.635 6.35006 13.5975C6.98006 13.5825 7.42506 13.15 8.24506 13.15C9.04006 13.15 9.45256 13.5975 10.1551 13.5975C11.3701 13.58 12.4151 11.535 12.7201 10.615C11.0901 9.84752 11.1776 8.36503 11.1776 8.31752ZM9.76256 4.21252C10.4451 3.40252 10.3826 2.66502 10.3626 2.40002C9.76006 2.43502 9.06256 2.81002 8.66506 3.27252C8.22756 3.76752 7.97006 4.38002 8.02506 5.07002C8.67756 5.12002 9.27256 4.78502 9.76256 4.21252Z" fill="#737373"/>
</svg>
