<svg width="247" height="132" viewBox="0 0 247 132" fill="none" xmlns="http://www.w3.org/2000/svg">
    <path
        d="M126.25 71.3731C126.25 71.3731 112.772 72.1676 105.565 72.034C98.3585 71.9004 93.1556 70.1708 91.2924 73.3699C89.4292 76.569 89.1831 75.2401 86.0825 80.9774C82.9818 86.7146 54.3659 112.954 53.7753 117.088C52.8402 123.613 59.5969 128.274 63.3304 129.21C67.0638 130.145 87.341 109.86 87.341 109.86C87.341 109.86 85.281 142.906 84.62 156.504C83.9591 170.102 83.5513 210.016 83.5513 210.016H152.672C152.672 210.016 151.337 177.723 151.47 171.184C151.604 164.645 159.204 132.514 159.204 132.514C159.204 132.514 164.945 112.227 169.579 112.227C178.269 107.543 184.062 112 189.275 114.544C197.386 118.951 206.655 127.868 213.606 127.868C222.296 127.868 225.192 125.705 225.192 112.227C225.192 98.7484 182.821 87.9169 178.153 86.342C173.484 84.767 164.407 82.8757 157.468 80.204C150.528 77.5322 139.721 74.4667 137.851 73.7988C135.981 73.1308 126.25 71.3731 126.25 71.3731Z"
        fill="#263238" stroke="#263238" stroke-width="0.571831" stroke-linecap="round"
        stroke-linejoin="round" />
    <path
        d="M130.383 67.2319C130.383 67.2319 125.982 66.9647 122.248 71.2395C118.515 75.5143 109.593 90.1879 108.236 92.0511C106.879 93.9143 109.438 92.9862 111.969 92.719C114.5 92.4518 122.115 91.3831 123.844 92.0511C125.574 92.719 132.788 93.5205 135.727 96.7266C138.666 99.9327 145.197 107.132 146.133 105.262C147.068 103.392 149.332 94.8564 150.4 89.091C151.469 83.3257 152.271 77.6166 147.869 71.8723C143.468 66.128 130.383 67.2319 130.383 67.2319Z"
        fill="#2563EB" stroke="#263238" stroke-width="0.571831" stroke-linecap="round"
        stroke-linejoin="round" />
    <path
        d="M129.59 60.8267C129.198 66.4399 127.601 71.9027 124.908 76.8432C120.373 85.3787 122.51 101.529 124.774 100.748C127.038 99.9679 140.798 90.8418 142.668 85.6459C144.538 80.4501 144.13 72.702 147.47 64.4336C150.81 56.1652 152.94 51.4685 152.94 51.4685C152.94 51.4685 133.057 60.5595 129.59 60.8267Z"
        fill="#D9D9D9" />
    <mask id="mask0_187_6153" style="mask-type:luminance" maskUnits="userSpaceOnUse" x="122" y="51"
        width="31" height="50">
        <path
            d="M129.59 60.8267C129.198 66.4399 127.601 71.9027 124.908 76.8432C120.373 85.3787 122.51 101.529 124.774 100.748C127.038 99.9679 140.798 90.8418 142.668 85.6459C144.538 80.4501 144.13 72.702 147.47 64.4336C150.81 56.1652 152.94 51.4685 152.94 51.4685C152.94 51.4685 133.057 60.5595 129.59 60.8267Z"
            fill="white" />
    </mask>
    <g mask="url(#mask0_187_6153)">
        <path opacity="0.15"
            d="M129.588 60.8267C129.412 63.8133 128.851 66.7647 127.922 69.6084C129.891 70.1853 131.94 70.4394 133.99 70.3607C141.217 70.3607 141.963 69.1162 141.963 69.1162C141.963 69.1162 140.465 79.8313 138.721 85.0623C137.716 88.0927 136.289 91.4535 135.262 93.7526C138.707 90.9894 141.836 87.945 142.666 85.6459C144.529 80.443 144.128 72.702 147.468 64.4336C150.808 56.1652 152.938 51.4685 152.938 51.4685C152.938 51.4685 133.054 60.5595 129.588 60.8267Z"
            fill="black" />
    </g>
    <path
        d="M129.59 60.8267C129.198 66.4399 127.601 71.9027 124.908 76.8432C120.373 85.3787 122.51 101.529 124.774 100.748C127.038 99.9679 140.798 90.8418 142.668 85.6459C144.538 80.4501 144.13 72.702 147.47 64.4336C150.81 56.1652 152.94 51.4685 152.94 51.4685C152.94 51.4685 133.057 60.5595 129.59 60.8267Z"
        stroke="#263238" stroke-width="0.571831" stroke-linecap="round" stroke-linejoin="round" />
    <path
        d="M138.265 3.58084C133.322 6.85375 129.32 11.3619 126.657 16.6584C122.389 25.3346 122.656 36.809 122.656 36.809C122.656 36.809 123.057 49.6194 122.389 54.6887C121.721 59.758 128.014 63.3649 130.925 63.4985C133.835 63.6321 142.934 57.6276 147.208 55.891C151.483 54.1543 152.678 53.8872 156.813 49.753C160.947 45.6188 168.027 33.0686 168.428 26.0025C168.828 18.9364 167.619 10.6891 161.467 5.71824C155.315 0.747371 147.068 -0.820528 138.265 3.58084Z"
        fill="#D9D9D9" />
    <mask id="mask1_187_6153" style="mask-type:luminance" maskUnits="userSpaceOnUse" x="122" y="1"
        width="47" height="63">
        <path
            d="M138.265 3.58084C133.322 6.85375 129.32 11.3619 126.657 16.6584C122.389 25.3346 122.656 36.809 122.656 36.809C122.656 36.809 123.057 49.6194 122.389 54.6887C121.721 59.758 128.014 63.3649 130.925 63.4985C133.835 63.6321 142.934 57.6276 147.208 55.891C151.483 54.1543 152.678 53.8872 156.813 49.753C160.947 45.6188 168.027 33.0686 168.428 26.0025C168.828 18.9364 167.619 10.6891 161.467 5.71824C155.315 0.747371 147.068 -0.820528 138.265 3.58084Z"
            fill="white" />
    </mask>
    <g mask="url(#mask1_187_6153)">
        <path opacity="0.15"
            d="M127.93 62.6266C128.863 63.1 129.876 63.3957 130.918 63.4985C133.857 63.632 142.927 57.6276 147.201 55.891C151.476 54.1543 152.672 53.8872 156.806 49.753C160.94 45.6188 168.02 33.0686 168.421 26.0025C168.709 22.0077 168.258 17.994 167.092 14.1624C163.778 15.3967 160.862 17.5086 158.655 20.2723C153.67 26.5017 158.655 31.5218 154.436 38.2152C150.218 44.9087 143.461 48.6561 138.476 53.9153C133.491 59.1744 134.686 62.493 127.93 62.6266Z"
            fill="black" />
    </g>
    <path
        d="M138.265 3.58084C133.322 6.85375 129.32 11.3619 126.657 16.6584C122.389 25.3346 122.656 36.809 122.656 36.809C122.656 36.809 123.057 49.6194 122.389 54.6887C121.721 59.758 128.014 63.3649 130.925 63.4985C133.835 63.6321 142.934 57.6276 147.208 55.891C151.483 54.1543 152.678 53.8872 156.813 49.753C160.947 45.6188 168.027 33.0686 168.428 26.0025C168.828 18.9364 167.619 10.6891 161.467 5.71824C155.315 0.747371 147.068 -0.820528 138.265 3.58084Z"
        stroke="#263238" stroke-width="0.571831" stroke-linecap="round" stroke-linejoin="round" />
    <path
        d="M133.054 33.1389C133.054 33.1389 131.184 34.074 131.184 35.1427C131.184 36.2114 132.519 36.4715 132.519 36.4715"
        stroke="#263238" stroke-width="0.571831" stroke-linecap="round" stroke-linejoin="round" />
    <path
        d="M133.99 33.5396C133.99 33.5396 132.12 35.6489 133.055 37.0059C133.99 38.3628 136.788 37.4066 136.788 37.4066C136.788 37.4066 136.655 38.0746 138.258 38.2082C139.861 38.3418 140.796 36.3379 139.861 35.0091L138.926 33.6732"
        stroke="#263238" stroke-width="0.571831" stroke-linecap="round" stroke-linejoin="round" />
    <path
        d="M135.361 26.2767C135.038 27.2399 134.405 27.9008 133.955 27.7461C133.505 27.5915 133.379 26.6845 133.695 25.7212C134.011 24.758 134.644 24.0971 135.101 24.2518C135.558 24.4064 135.678 25.3134 135.361 26.2767Z"
        fill="#263238" stroke="#263238" stroke-width="0.571831" stroke-linecap="round"
        stroke-linejoin="round" />
    <path
        d="M135.595 24.5963C135.494 24.3474 135.343 24.1214 135.153 23.9319C134.963 23.7424 134.736 23.5933 134.486 23.4935C134.237 23.3937 133.97 23.3453 133.701 23.3512C133.433 23.357 133.168 23.417 132.923 23.5276C131.053 24.3291 130.111 29.0047 132.122 29.9328"
        stroke="#263238" stroke-width="0.571831" stroke-linecap="round" stroke-linejoin="round" />
    <path
        d="M146.568 29.4758C146.245 30.446 145.612 31.0999 145.162 30.9523C144.712 30.8046 144.586 29.8906 144.902 28.9273C145.218 27.9641 145.858 27.3032 146.308 27.4579C146.758 27.6126 146.885 28.5125 146.568 29.4758Z"
        fill="#263238" stroke="#263238" stroke-width="0.571831" stroke-linecap="round"
        stroke-linejoin="round" />
    <path
        d="M146.8 27.8024C146.7 27.5528 146.55 27.3262 146.359 27.1361C146.169 26.9461 145.942 26.7966 145.693 26.6967C145.443 26.5968 145.175 26.5486 144.907 26.555C144.638 26.5613 144.373 26.6221 144.128 26.7337C142.265 27.5352 141.316 32.2037 143.327 33.1389"
        stroke="#263238" stroke-width="0.571831" stroke-linecap="round" stroke-linejoin="round" />
    <path
        d="M129.723 45.3516C128.922 44.9508 125.448 42.8134 125.582 41.4776C125.715 40.1417 127.051 38.2785 128.394 39.4737C129.737 40.669 133.196 43.2142 133.196 43.2142C133.196 43.2142 135.2 45.6188 138.934 43.9173"
        stroke="#263238" stroke-width="0.571831" stroke-linecap="round" stroke-linejoin="round" />
    <path
        d="M129.988 20.2582C129.988 20.2582 131.718 16.9255 134.122 16.6584C136.527 16.3912 137.722 19.0629 137.722 19.4707"
        stroke="#263238" stroke-width="2.28733" stroke-linecap="round" stroke-linejoin="round" />
    <path d="M143.328 21.9948C143.328 21.9948 145.733 24.9338 151.062 25.2009" stroke="#263238"
        stroke-width="2.28733" stroke-linecap="round" stroke-linejoin="round" />
    <path
        d="M168.422 26.0025C168.816 18.9294 167.62 10.654 161.482 5.71823C155.344 0.782518 147.069 -0.820535 138.28 3.60895C138.28 3.60895 137.634 3.99565 136.621 4.76203C137.962 6.49372 139.64 7.93505 141.555 8.99862C143.469 10.0622 145.58 10.7258 147.758 10.9493C156.026 11.8844 158.698 10.2462 161.117 12.018C163.536 13.7897 164.182 18.5567 162.446 20.1527C160.709 21.7488 156.575 21.6222 156.308 24.0268C156.041 26.4314 160.182 32.1686 159.647 34.0318C159.113 35.895 158.044 37.1043 158.846 37.9059C159.647 38.7074 161.918 37.6387 162.446 37.3715C162.973 37.1043 162.699 40.3386 161.138 44.1001C164.611 38.5246 168.141 30.9312 168.422 26.0025Z"
        fill="#263238" stroke="#263238" stroke-width="0.571831" stroke-linecap="round"
        stroke-linejoin="round" />
    <path
        d="M157.208 40.676C157.208 40.676 160.547 36.2747 162.945 36.2747C165.343 36.2747 166.552 40.1417 165.216 43.7486C163.88 47.3554 161.483 49.2186 158.544 49.4858C155.605 49.753 155.345 48.2835 155.612 47.3765"
        fill="#D9D9D9" />
    <path
        d="M157.208 40.676C157.208 40.676 160.547 36.2747 162.945 36.2747C165.343 36.2747 166.552 40.1417 165.216 43.7486C163.88 47.3554 161.483 49.2186 158.544 49.4858C155.605 49.753 155.345 48.2835 155.612 47.3765"
        stroke="#263238" stroke-width="0.571831" stroke-linecap="round" stroke-linejoin="round" />
    <path
        d="M83.6831 64.9679C83.6831 64.9679 84.4847 78.5728 84.4847 79.1071C84.4847 79.6415 62.4638 102.597 57.3945 107.934C52.3252 113.27 52.1916 117.672 53.3868 121.012C54.5821 124.351 58.7304 129.153 62.4638 129.681C66.1972 130.208 70.3384 126.482 74.0719 118.206C77.8053 109.931 91.157 84.978 92.6195 82.3132C94.0819 79.6485 97.5411 77.2439 97.5411 77.2439C97.5411 77.2439 101.141 75.3737 102.744 72.7019C104.347 70.0302 107.413 64.7007 110.745 62.1555C114.078 59.6103 115.667 58.9494 114.218 58.1549C112.77 57.3604 108.08 59.083 106.745 60.0181C105.409 60.9533 102.477 63.3578 102.477 63.3578C102.477 63.3578 99.9387 59.6174 99.8051 56.4183C99.6715 53.2192 100.473 48.6421 98.6098 49.5772C96.7466 50.5123 93.639 57.4026 89.6665 61.0868C85.9471 64.5672 83.6831 62.9641 83.6831 64.9679Z"
        fill="#D9D9D9" />
    <mask id="mask2_187_6153" style="mask-type:luminance" maskUnits="userSpaceOnUse" x="52" y="49"
        width="63" height="81">
        <path
            d="M83.6831 64.9679C83.6831 64.9679 84.4847 78.5728 84.4847 79.1071C84.4847 79.6415 62.4638 102.597 57.3945 107.934C52.3252 113.27 52.1916 117.672 53.3868 121.012C54.5821 124.351 58.7304 129.153 62.4638 129.681C66.1972 130.208 70.3384 126.482 74.0719 118.206C77.8053 109.931 91.157 84.978 92.6195 82.3132C94.0819 79.6485 97.5411 77.2439 97.5411 77.2439C97.5411 77.2439 101.141 75.3737 102.744 72.7019C104.347 70.0302 107.413 64.7007 110.745 62.1555C114.078 59.6103 115.667 58.9494 114.218 58.1549C112.77 57.3604 108.08 59.083 106.745 60.0181C105.409 60.9533 102.477 63.3578 102.477 63.3578C102.477 63.3578 99.9387 59.6174 99.8051 56.4183C99.6715 53.2192 100.473 48.6421 98.6098 49.5772C96.7466 50.5123 93.639 57.4026 89.6665 61.0868C85.9471 64.5672 83.6831 62.9641 83.6831 64.9679Z"
            fill="white" />
    </mask>
    <g mask="url(#mask2_187_6153)">
        <path opacity="0.15"
            d="M114.24 58.162C112.771 57.3605 108.102 59.0901 106.766 60.0252C105.431 60.9603 102.499 63.3649 102.499 63.3649C102.499 63.3649 99.9605 59.6244 99.8269 56.4253C99.6933 53.2263 100.495 48.6491 98.6316 49.5842C96.7684 50.5194 93.6608 57.4097 89.6883 61.0939C88.6602 62.0994 87.4242 62.8673 86.0674 63.3438L85.3994 66.1562C85.3994 66.1562 88.1415 67.9069 88.1415 70.1497C88.1415 72.3926 91.657 73.1379 91.8749 75.3807C92.0929 77.6236 90.3844 80.1126 89.1328 81.6101C87.8813 83.1077 67.7026 117.988 62.4715 122.228C60.2849 123.993 57.4093 124.154 54.8008 123.747C56.6429 126.524 59.6662 129.322 62.4645 129.716C66.1979 130.25 70.3392 126.517 74.0726 118.241C77.806 109.966 91.1578 85.0131 92.6202 82.3484C94.0826 79.6837 97.5419 77.2791 97.5419 77.2791C97.5419 77.2791 101.142 75.4089 102.745 72.7371C104.348 70.0654 107.413 64.7359 110.746 62.1907C114.079 59.6455 115.71 58.9565 114.24 58.162Z"
            fill="black" />
    </g>
    <path
        d="M83.6831 64.9679C83.6831 64.9679 84.4847 78.5728 84.4847 79.1071C84.4847 79.6415 62.4638 102.597 57.3945 107.934C52.3252 113.27 52.1916 117.672 53.3868 121.012C54.5821 124.351 58.7304 129.153 62.4638 129.681C66.1972 130.208 70.3384 126.482 74.0719 118.206C77.8053 109.931 91.157 84.978 92.6195 82.3132C94.0819 79.6485 97.5411 77.2439 97.5411 77.2439C97.5411 77.2439 101.141 75.3737 102.744 72.7019C104.347 70.0302 107.413 64.7007 110.745 62.1555C114.078 59.6103 115.667 58.9494 114.218 58.1549C112.77 57.3604 108.08 59.083 106.745 60.0181C105.409 60.9533 102.477 63.3578 102.477 63.3578C102.477 63.3578 99.9387 59.6174 99.8051 56.4183C99.6715 53.2192 100.473 48.6421 98.6098 49.5772C96.7466 50.5123 93.639 57.4026 89.6665 61.0868C85.9471 64.5672 83.6831 62.9641 83.6831 64.9679Z"
        stroke="#263238" stroke-width="0.571831" stroke-linecap="round" stroke-linejoin="round" />
    <path
        d="M124.778 50.2873L124.842 50.3928C124.942 50.5702 125.007 50.7658 125.031 50.9683C125.055 51.1708 125.039 51.3761 124.984 51.5724C124.928 51.7686 124.834 51.9519 124.707 52.1115C124.58 52.271 124.423 52.4038 124.244 52.5021L98.8763 66.5639L93.9688 67.6397L97.3225 63.7797L122.69 49.7178C123.043 49.5189 123.46 49.4671 123.851 49.5737C124.242 49.6804 124.575 49.9367 124.778 50.2873Z"
        fill="#FBBF24" stroke="#263238" stroke-width="0.571831" stroke-linecap="round"
        stroke-linejoin="round" />
    <path
        d="M98.8763 66.564L99.0592 66.4585L97.4983 63.6672L97.3155 63.7657L93.9688 67.6256L98.8763 66.564Z"
        fill="white" stroke="#263238" stroke-width="0.571831" stroke-linecap="round"
        stroke-linejoin="round" />
    <path
        d="M121.63 53.9504L124.245 52.488C124.424 52.3898 124.581 52.257 124.708 52.0974C124.835 51.9378 124.929 51.7546 124.985 51.5583C125.041 51.3621 125.057 51.1568 125.032 50.9543C125.008 50.7518 124.943 50.5561 124.843 50.3787L124.779 50.2733C124.681 50.0945 124.548 49.9371 124.389 49.81C124.229 49.683 124.046 49.589 123.85 49.5334C123.654 49.4778 123.448 49.4617 123.246 49.4862C123.043 49.5106 122.848 49.575 122.67 49.6756L120.055 51.1381L121.63 53.9504Z"
        fill="white" stroke="#263238" stroke-width="0.571831" stroke-linecap="round"
        stroke-linejoin="round" />
    <path d="M120.415 50.9647L119.016 51.746L120.578 54.5455L121.978 53.7642L120.415 50.9647Z"
        fill="white" stroke="#263238" stroke-width="0.571831" stroke-linecap="round"
        stroke-linejoin="round" />
    <path d="M93.9688 67.6256L96.2819 67.1194L95.5437 65.8046L93.9688 67.6256Z" fill="white"
        stroke="#263238" stroke-width="0.571831" stroke-linecap="round" stroke-linejoin="round" />
    <path d="M89.6889 68.167C89.6889 68.167 89.2882 71.3731 86.75 71.4996" stroke="#263238"
        stroke-width="0.571831" stroke-linecap="round" stroke-linejoin="round" />
    <path
        d="M96.8867 52.1716C96.8867 52.1716 101.555 59.6455 103.158 61.115C104.761 62.5844 106.758 62.3173 107.159 60.9814C107.56 59.6455 104.895 56.8472 103.826 53.2473C102.758 49.6475 102.357 48.5788 100.219 49.1132C98.082 49.6475 97.0203 50.8568 96.8867 52.1716Z"
        fill="#D9D9D9" stroke="#263238" stroke-width="0.571831" stroke-linecap="round"
        stroke-linejoin="round" />
    <path
        d="M104.363 61.7618C104.363 61.7618 95.9611 57.4941 94.0909 55.3567C92.2206 53.2192 90.0903 56.0246 89.6895 57.4659C89.2887 58.9073 95.8275 61.6001 98.893 62.6688C101.958 63.7375 103.815 64.1383 104.764 63.0696C105.713 62.0009 104.363 61.7618 104.363 61.7618Z"
        fill="#D9D9D9" stroke="#263238" stroke-width="0.571831" stroke-linecap="round"
        stroke-linejoin="round" />
    <path
        d="M90.2237 58.6893C90.2237 58.6893 87.4114 59.6244 86.884 60.7986C86.3567 61.9728 87.8192 62.8024 90.4909 64.4055C93.1627 66.0085 97.4304 66.5147 98.4921 66.0015C99.5538 65.4882 99.6944 64.4055 98.2249 63.8922C96.7555 63.3789 91.426 59.4908 90.2237 58.6893Z"
        fill="#D9D9D9" stroke="#263238" stroke-width="0.571831" stroke-linecap="round"
        stroke-linejoin="round" />
    <path
        d="M87.8185 62.8305C87.8185 62.8305 84.753 62.029 83.8179 63.7656C82.8828 65.5023 83.9515 66.578 87.1506 67.4991C90.3496 68.4201 95.1588 69.1021 95.2924 67.3655C95.426 65.6288 92.7542 65.3617 90.4902 64.4336C88.2263 63.5055 87.8185 62.8305 87.8185 62.8305Z"
        fill="#D9D9D9" stroke="#263238" stroke-width="0.571831" stroke-linecap="round"
        stroke-linejoin="round" />
    <path
        d="M198.18 77.0109C198.18 77.0109 201.314 86.6966 203.781 90.0425C206.248 93.3885 213.079 99.044 218.849 103.421C224.619 107.799 225.232 116.791 224.09 120.058C222.948 123.326 219.988 125.817 213.837 123.699C207.686 121.58 203.088 113.796 198.379 105.745C193.671 97.6933 190.571 91.7504 190.196 91.3253C189.821 90.9003 198.18 77.0109 198.18 77.0109Z"
        fill="#D9D9D9" />
    <mask id="mask3_187_6153" style="mask-type:luminance" maskUnits="userSpaceOnUse" x="190" y="77"
        width="35" height="48">
        <path
            d="M198.218 77.0189C198.218 77.0189 201.337 86.7005 203.797 90.0467C206.258 93.3928 213.074 99.0518 218.832 103.432C224.59 107.813 225.193 116.799 224.049 120.062C222.905 123.326 219.946 125.812 213.804 123.688C207.663 121.563 203.079 113.78 198.385 105.73C193.692 97.6793 190.602 91.7375 190.228 91.3123C189.854 90.8872 198.218 77.0189 198.218 77.0189Z"
            fill="white" />
    </mask>
    <g mask="url(#mask3_187_6153)">
        <path opacity="0.15"
            d="M224.044 120.083C225.188 116.819 224.558 107.825 218.827 103.453C213.097 99.0812 206.245 93.4271 203.792 90.0674C201.339 86.7077 198.212 77.0398 198.212 77.0398C198.212 77.0398 189.819 90.9271 190.222 91.333C190.625 91.7389 193.686 97.6999 198.38 105.75L198.545 106.035L202.497 100.776C202.497 100.776 220.917 116.926 221.192 120.435C221.254 121.569 221.181 122.705 220.976 123.822C222.449 123.025 223.55 121.683 224.044 120.083Z"
            fill="black" />
    </g>
    <path
        d="M198.18 77.0109C198.18 77.0109 201.314 86.6966 203.781 90.0425C206.248 93.3885 213.079 99.044 218.849 103.421C224.619 107.799 225.232 116.791 224.09 120.058C222.948 123.326 219.988 125.817 213.837 123.699C207.686 121.58 203.088 113.796 198.379 105.745C193.671 97.6933 190.571 91.7504 190.196 91.3253C189.821 90.9003 198.18 77.0109 198.18 77.0109Z"
        stroke="#263238" stroke-width="0.571831" stroke-linecap="round" stroke-linejoin="round" />
    <path
        d="M188.554 137.359C188.554 137.359 191.936 137.571 189.737 142.871C187.538 148.172 175.642 161.713 171.489 171.111C167.335 180.509 173.205 184.3 173.205 184.3C173.205 184.3 171.723 186.244 152.193 180.778C132.662 175.313 120.008 173.998 119.02 170.54C118.032 167.083 126.401 158.435 129.734 151.339C133.067 144.243 141.416 127.612 141.416 127.612C141.416 127.612 169.834 135.03 175.888 135.888C181.942 136.747 188.554 137.359 188.554 137.359Z"
        fill="white" />
    <mask id="mask4_187_6153" style="mask-type:luminance" maskUnits="userSpaceOnUse" x="118" y="127"
        width="73" height="58">
        <path
            d="M188.549 137.422C188.549 137.422 191.928 137.637 189.725 142.929C187.522 148.22 175.621 161.73 171.46 171.111C167.299 180.492 173.16 184.286 173.16 184.286C173.16 184.286 171.677 186.225 152.168 180.744C132.658 175.263 120.015 173.935 119.032 170.481C118.049 167.027 126.421 158.4 129.759 151.316C133.098 144.233 141.458 127.633 141.458 127.633C141.458 127.633 169.846 135.074 175.894 135.938C181.943 136.803 188.549 137.422 188.549 137.422Z"
            fill="white" />
    </mask>
    <g mask="url(#mask4_187_6153)">
        <path opacity="0.15"
            d="M188.55 137.412C188.55 137.412 181.962 136.823 175.909 135.903C169.857 134.982 141.468 127.6 141.468 127.6C141.468 127.6 133.107 144.196 129.769 151.279C128.45 153.877 126.928 156.368 125.216 158.727L170.785 172.826C170.976 172.261 171.203 171.678 171.474 171.069C175.637 161.668 187.531 148.174 189.742 142.891C191.952 137.608 188.55 137.412 188.55 137.412Z"
            fill="black" />
    </g>
    <path
        d="M188.554 137.359C188.554 137.359 191.936 137.571 189.737 142.871C187.538 148.172 175.642 161.713 171.489 171.111C167.335 180.509 173.205 184.3 173.205 184.3C173.205 184.3 171.723 186.243 152.193 180.778C132.662 175.313 120.008 173.998 119.02 170.54C118.032 167.083 126.401 158.435 129.734 151.339C133.067 144.243 141.416 127.612 141.416 127.612C141.416 127.612 169.834 135.03 175.888 135.888C181.942 136.747 188.554 137.359 188.554 137.359Z"
        stroke="#263238" stroke-width="0.571831" stroke-linecap="round" stroke-linejoin="round" />
    <path
        d="M165.715 157.483C165.715 157.483 165.63 158.838 171.092 153.065C176.555 147.293 188.555 137.359 188.555 137.359L136.98 122.748C136.98 122.748 121.126 137.196 119.118 139.444C117.11 141.692 115.706 142.287 120.48 144.799C125.254 147.31 149.644 151.559 154.773 153.233C159.902 154.907 165.715 157.483 165.715 157.483Z"
        fill="white" />
    <mask id="mask5_187_6153" style="mask-type:luminance" maskUnits="userSpaceOnUse" x="117" y="122"
        width="72" height="36">
        <path
            d="M165.693 157.464C165.693 157.464 165.606 158.815 171.073 153.06C176.539 147.304 188.544 137.402 188.544 137.402L137.007 122.765C137.007 122.765 121.143 137.168 119.134 139.41C117.125 141.652 115.72 142.245 120.49 144.756C125.259 147.268 149.635 151.534 154.76 153.21C159.885 154.886 165.693 157.464 165.693 157.464Z"
            fill="white" />
    </mask>
    <g mask="url(#mask5_187_6153)">
        <path
            d="M165.693 157.464C165.693 157.464 165.606 158.815 171.073 153.06C176.539 147.304 188.544 137.402 188.544 137.402L137.007 122.765C137.007 122.765 121.143 137.168 119.134 139.41C117.125 141.652 115.72 142.245 120.49 144.756C125.259 147.268 149.635 151.534 154.76 153.21C159.885 154.886 165.693 157.464 165.693 157.464Z"
            fill="#2563EB" />
        <path opacity="0.5"
            d="M165.693 157.464C165.693 157.464 165.606 158.815 171.073 153.06C176.539 147.304 188.544 137.402 188.544 137.402L137.007 122.765C137.007 122.765 121.143 137.168 119.134 139.41C117.125 141.652 115.72 142.245 120.49 144.756C125.259 147.268 149.635 151.534 154.76 153.21C159.885 154.886 165.693 157.464 165.693 157.464Z"
            fill="white" />
    </g>
    <path
        d="M165.715 157.483C165.715 157.483 165.63 158.838 171.092 153.065C176.555 147.293 188.555 137.359 188.555 137.359L136.98 122.748C136.98 122.748 121.126 137.196 119.118 139.444C117.11 141.692 115.706 142.287 120.48 144.799C125.254 147.31 149.644 151.559 154.773 153.233C159.902 154.907 165.715 157.483 165.715 157.483Z"
        stroke="#263238" stroke-width="0.571831" stroke-linecap="round" stroke-linejoin="round" />
    <path d="M181.447 138.568L154.344 130.402" stroke="#263238" stroke-width="0.571831"
        stroke-linecap="round" stroke-linejoin="round" />
    <path
        d="M191.272 72.0128C191.272 72.0128 189.868 75.75 187.381 88.338C184.894 100.926 181.463 115.315 177.38 125.929C173.298 136.543 165.729 151.87 165.097 153.866C164.92 154.474 164.884 155.115 164.991 155.739C165.099 156.363 165.347 156.955 165.716 157.469C165.716 157.469 159.184 156.045 140.695 152.843C122.206 149.641 104.512 139.366 105.092 138.212C105.672 137.058 118.614 125.809 126.544 110.674C134.474 95.5387 147.738 57.1311 147.738 57.1311C147.738 57.1311 169.09 68.8327 175.643 69.9269C182.197 71.0211 191.272 72.0128 191.272 72.0128Z"
        fill="white" />
    <mask id="mask6_187_6153" style="mask-type:luminance" maskUnits="userSpaceOnUse" x="105" y="57"
        width="87" height="101">
        <path
            d="M191.275 72.0937C191.275 72.0937 189.869 75.8261 187.371 88.4004C184.873 100.975 181.43 115.347 177.341 125.947C173.252 136.547 165.675 151.852 165.041 153.846C164.864 154.453 164.827 155.093 164.934 155.717C165.04 156.341 165.287 156.932 165.656 157.447C165.656 157.447 159.133 156.016 140.669 152.795C122.205 149.574 104.544 139.287 105.124 138.134C105.704 136.982 118.643 125.758 126.581 110.645C134.518 95.5323 147.809 57.1734 147.809 57.1734C147.809 57.1734 169.123 68.8901 175.667 69.9911C182.212 71.0922 191.275 72.0937 191.275 72.0937Z"
            fill="white" />
    </mask>
    <g mask="url(#mask6_187_6153)">
        <path opacity="0.15"
            d="M187.367 88.3833C189.865 75.8109 191.272 72.079 191.272 72.079C191.272 72.079 182.186 71.0763 175.64 69.9825C169.094 68.8887 147.777 57.1668 147.777 57.1668C147.777 57.1668 138.247 84.6333 130.515 102.234L179.476 119.945C182.705 109.583 185.34 99.0457 187.367 88.3833Z"
            fill="black" />
    </g>
    <path
        d="M191.272 72.0128C191.272 72.0128 189.868 75.75 187.381 88.338C184.894 100.926 181.463 115.315 177.38 125.929C173.298 136.543 165.729 151.87 165.097 153.866C164.92 154.474 164.884 155.115 164.991 155.739C165.099 156.363 165.347 156.955 165.716 157.469C165.716 157.469 159.184 156.045 140.695 152.843C122.206 149.641 104.512 139.366 105.092 138.212C105.672 137.058 118.614 125.809 126.544 110.674C134.474 95.5387 147.738 57.1311 147.738 57.1311C147.738 57.1311 169.09 68.8327 175.643 69.9269C182.197 71.0211 191.272 72.0128 191.272 72.0128Z"
        stroke="#263238" stroke-width="0.571831" stroke-linecap="round" stroke-linejoin="round" />
    <path
        d="M196.141 64.7167C196.141 64.7167 199.417 65.7182 200.025 70.9764C200.632 76.2346 199.689 89.1378 199.189 90.7126C198.688 92.2875 187.545 93.0541 182.717 93.315C177.889 93.5759 180.526 91.973 183.135 84.5141C185.744 77.0553 188.354 71.6043 189.521 70.0783C190.687 68.5523 193.308 62.9329 196.141 64.7167Z"
        fill="#D9D9D9" stroke="#263238" stroke-width="0.571831" stroke-linecap="round"
        stroke-linejoin="round" />
    <path opacity="0.15"
        d="M192.162 70.4271C192.162 70.4271 191.874 89.0635 192.11 91.1424C192.346 93.2213 179.734 93.3675 179.734 93.3675L188.809 72.2106"
        fill="black" />
    <path
        d="M190.703 98.0427C190.703 98.0427 185.976 100.959 184.326 101.658C182.676 102.358 174.374 98.3574 174.183 97.1408C173.992 95.9241 175.708 96.2994 178.086 96.681C180.465 97.0626 184.554 98.0235 186.329 97.4655C188.104 96.9076 191.201 96.4959 190.703 98.0427Z"
        fill="#D9D9D9" stroke="#263238" stroke-width="0.571831" stroke-linecap="round"
        stroke-linejoin="round" />
    <path
        d="M196.918 92.8388C196.918 92.8388 195.201 96.7467 193.259 97.8225C191.318 98.8984 183.657 99.6298 180.342 99.1261C177.027 98.6224 174.367 96.3421 175.241 95.1994C176.116 94.0566 175.141 94.6577 179.709 94.2749C184.277 93.892 189.902 93.8431 192.345 93.1932C193.837 92.8123 195.385 92.6924 196.918 92.8388Z"
        fill="#D9D9D9" stroke="#263238" stroke-width="0.571831" stroke-linecap="round"
        stroke-linejoin="round" />
    <path
        d="M197.803 85.0043C197.803 85.0043 192.576 87.3536 188.333 88.9615C186.944 89.4609 185.53 89.8872 184.097 90.2387C182.407 90.339 180.714 90.341 179.024 90.2447C176.098 90.0612 174.381 89.6929 174.306 90.8858C174.192 92.7103 177.323 93.8928 178.654 94.3497C183.278 95.9922 188.932 94.6912 193.725 94.2097C194.762 94.1291 195.78 93.8863 196.743 93.4901C199.281 92.4446 199.927 89.5475 199.636 87.7892L199.488 87.5686"
        fill="#D9D9D9" />
    <path
        d="M197.803 85.0043C197.803 85.0043 192.576 87.3536 188.333 88.9615C186.944 89.4609 185.53 89.8872 184.097 90.2387C182.407 90.339 180.714 90.341 179.024 90.2447C176.098 90.0612 174.381 89.6929 174.306 90.8858C174.192 92.7103 177.323 93.8928 178.654 94.3497C183.278 95.9922 188.932 94.6912 193.725 94.2097C194.762 94.1291 195.78 93.8863 196.743 93.4901C199.281 92.4446 199.927 89.5475 199.636 87.7892L199.488 87.5686"
        stroke="#263238" stroke-width="0.571831" stroke-linecap="round" stroke-linejoin="round" />
    <path
        d="M191.272 72.0128C191.272 72.0128 187.662 80.4797 183.535 90.9148C180.874 97.7703 178.602 104.771 176.732 111.883C176.732 111.883 174.423 110.4 156.962 103.155C139.502 95.9103 117.592 87.048 117.592 87.048C117.592 87.048 135.606 68.3888 139.77 59.1606C143.934 49.9325 145.713 51.784 153.772 55.4947C161.831 59.2053 172.916 65.7826 179.527 66.8664C186.137 67.9501 191.354 70.7006 191.272 72.0128Z"
        fill="white" />
    <mask id="mask7_187_6153" style="mask-type:luminance" maskUnits="userSpaceOnUse" x="117" y="52"
        width="75" height="60">
        <path
            d="M191.252 72.0679C191.252 72.0679 187.636 80.5197 183.5 90.9367C180.834 97.7804 178.557 104.769 176.68 111.87C176.68 111.87 174.374 110.386 156.935 103.131C139.496 95.8751 117.612 86.999 117.612 86.999C117.612 86.999 135.633 68.3844 139.804 59.1729C143.976 49.9614 145.751 51.8126 153.8 55.5278C161.849 59.2429 172.918 65.8246 179.522 66.9145C186.126 68.0045 191.336 70.7574 191.252 72.0679Z"
            fill="white" />
    </mask>
    <g mask="url(#mask7_187_6153)">
        <path
            d="M191.252 72.0679C191.252 72.0679 187.636 80.5197 183.5 90.9367C180.834 97.7804 178.557 104.769 176.68 111.87C176.68 111.87 174.374 110.386 156.935 103.131C139.496 95.8751 117.612 86.999 117.612 86.999C117.612 86.999 135.633 68.3844 139.804 59.1729C143.976 49.9614 145.751 51.8126 153.8 55.5278C161.849 59.2429 172.918 65.8246 179.522 66.9145C186.126 68.0045 191.336 70.7574 191.252 72.0679Z"
            fill="#86EFAC" />
    </g>
    <path
        d="M191.272 72.0128C191.272 72.0128 187.662 80.4797 183.535 90.9148C180.874 97.7703 178.602 104.771 176.732 111.883C176.732 111.883 174.423 110.4 156.962 103.155C139.502 95.9103 117.592 87.048 117.592 87.048C117.592 87.048 135.606 68.3888 139.77 59.1606C143.934 49.9325 145.713 51.784 153.772 55.4947C161.831 59.2053 172.916 65.7827 179.527 66.8664C186.137 67.9501 191.354 70.7006 191.272 72.0128Z"
        stroke="#263238" stroke-width="0.571831" stroke-linecap="round" stroke-linejoin="round" />
    <path d="M176.452 99.481L132.754 81.271" stroke="#263238" stroke-width="0.571831"
        stroke-linecap="round" stroke-linejoin="round" />
    <path d="M178.657 94.3497L136.559 76.8106" stroke="#263238" stroke-width="0.571831"
        stroke-linecap="round" stroke-linejoin="round" />
    <path d="M180.824 89.181L139.984 72.1294" stroke="#263238" stroke-width="0.571831"
        stroke-linecap="round" stroke-linejoin="round" />
    <path d="M182.786 82.844L144.609 67.1288" stroke="#263238" stroke-width="0.571831"
        stroke-linecap="round" stroke-linejoin="round" />
    <path d="M184.338 76.8687L148.859 61.7171" stroke="#263238" stroke-width="0.571831"
        stroke-linecap="round" stroke-linejoin="round" />
    <path
        d="M130.372 81.7135C131.341 81.7743 132.162 81.2549 132.206 80.5534C132.25 79.8519 131.501 79.2341 130.532 79.1733C129.563 79.1126 128.742 79.632 128.698 80.3334C128.654 81.0349 129.404 81.6528 130.372 81.7135Z"
        stroke="#263238" stroke-width="0.571831" stroke-linecap="round" stroke-linejoin="round" />
    <path
        d="M134.372 77.2654C135.341 77.3261 136.162 76.8067 136.206 76.1052C136.25 75.4038 135.501 74.7859 134.532 74.7251C133.563 74.6644 132.742 75.1838 132.698 75.8853C132.654 76.5867 133.404 77.2046 134.372 77.2654Z"
        stroke="#263238" stroke-width="0.571831" stroke-linecap="round" stroke-linejoin="round" />
    <path
        d="M137.575 73.0561C138.544 73.1168 139.365 72.5974 139.409 71.896C139.453 71.1945 138.704 70.5766 137.735 70.5159C136.766 70.4551 135.945 70.9745 135.901 71.676C135.857 72.3775 136.607 72.9954 137.575 73.0561Z"
        stroke="#263238" stroke-width="0.571831" stroke-linecap="round" stroke-linejoin="round" />
    <path
        d="M141.075 67.2031C142.044 67.2639 142.865 66.7444 142.909 66.043C142.953 65.3415 142.204 64.7236 141.235 64.6629C140.266 64.6021 139.445 65.1215 139.401 65.823C139.357 66.5245 140.107 67.1424 141.075 67.2031Z"
        stroke="#263238" stroke-width="0.571831" stroke-linecap="round" stroke-linejoin="round" />
    <path
        d="M147.374 60.4546C147.418 59.7529 146.668 59.1352 145.7 59.0745C144.731 59.0138 143.91 59.5329 143.866 60.2346C143.822 60.9364 144.572 61.547 145.541 61.6077C146.509 61.6684 147.331 61.1493 147.374 60.4546Z"
        stroke="#263238" stroke-width="0.571831" stroke-linecap="round" stroke-linejoin="round" />
    <path
        d="M195.345 68.8093C195.345 68.8093 190.768 75.7432 188.035 76.6426C185.302 77.5421 177.658 75.8582 178.328 74.1601C178.998 72.4621 182.863 72.169 185.606 68.9807C188.349 65.7923 190.883 61.5623 193.234 62.3719C195.586 63.1816 197.15 66.0905 197.225 67.0321"
        fill="#D9D9D9" />
    <path
        d="M195.345 68.8093C195.345 68.8093 190.768 75.7432 188.035 76.6426C185.302 77.5421 177.658 75.8582 178.328 74.1601C178.998 72.4621 182.863 72.169 185.606 68.9807C188.349 65.7923 190.883 61.5623 193.234 62.3719C195.586 63.1816 197.15 66.0905 197.225 67.0321"
        stroke="#263238" stroke-width="0.571831" stroke-linecap="round" stroke-linejoin="round" />
</svg>