<svg width="10" height="14" viewBox="0 0 10 14" fill="none" xmlns="http://www.w3.org/2000/svg">
<path fill-rule="evenodd" clip-rule="evenodd" d="M8.60242 3.9712C9.63481 5.6407 10.0572 7.68233 9.99384 8.93073C9.99384 8.93823 9.99412 8.94583 9.99441 8.95342C9.99479 8.96102 9.99507 8.96861 9.99507 8.97621C9.97211 11.7739 7.7162 14.0231 4.95617 13.9998C2.19617 13.9766 -0.0227035 11.6898 0.000175348 8.89218C0.000175348 8.82449 0.00363756 8.73814 0.00709025 8.68565C0.00824747 8.66805 0.00992621 8.64959 0.0116431 8.63075C0.0150388 8.59354 0.0185959 8.5545 0.0185959 8.51652C0.0267439 8.41739 0.0406591 8.29019 0.0460563 8.24096C0.0482759 8.22067 0.0490537 8.21356 0.0473653 8.22721C0.236125 6.38503 1.23284 4.4017 2.332 3.23503C2.34217 3.2202 2.36227 3.21655 2.37689 3.22686C2.39151 3.23717 2.39512 3.25754 2.38495 3.27236C2.25029 3.5652 1.97061 4.40636 2.35962 4.43319C2.48969 4.43319 2.55529 4.35619 2.63241 4.19986C2.72484 4.01008 2.8161 3.75348 2.92079 3.45909C3.33098 2.30571 3.94748 0.572174 5.65019 0.00336403C5.68357 -0.00829888 5.72385 0.0103636 5.69393 0.0593613C5.19238 0.856651 5.17944 1.87306 5.66055 2.68319C6.00814 3.26653 6.37069 3.30969 6.56865 3.13586C6.81376 2.9177 6.75049 2.2772 6.64463 2.07186C6.62737 2.03803 6.66417 2.01003 6.69528 2.03103C7.60304 2.65268 7.73062 3.43483 7.82073 3.98725C7.88475 4.38035 7.9299 4.65714 8.22367 4.67703C8.6231 4.70503 8.60697 4.24536 8.53792 3.98986C8.52758 3.94436 8.57472 3.92803 8.60242 3.9712ZM2.67957 8.91564C2.6694 10.2128 3.6982 11.2729 4.97789 11.2839C5.59327 11.2892 6.18545 11.0462 6.62395 10.6085C7.06246 10.1708 7.31117 9.57436 7.31544 8.95054C7.32436 7.65339 6.29444 6.59434 5.01473 6.5847C3.73504 6.57506 2.68975 7.61849 2.67957 8.91564Z" fill="#F04E23"/>
</svg>
