<svg width="20" height="20" viewBox="0 0 20 20" fill="none" xmlns="http://www.w3.org/2000/svg">
<rect x="0.5" y="0.5" width="19" height="19" rx="3.5" fill="#F5F5F5"/>
<rect x="0.5" y="0.5" width="19" height="19" rx="3.5" stroke="#E5E5E5"/>
<path d="M14.5833 8.91667C14.7991 8.91667 14.9765 9.08063 14.9978 9.29073L15 9.33333V14.25C15 15.1923 14.2552 15.9607 13.3221 15.9985L13.25 16H6.75C5.80766 16 5.03929 15.2552 5.00146 14.3221L5 14.25V9.33333C5 9.10321 5.18655 8.91667 5.41667 8.91667C5.6324 8.91667 5.80984 9.08063 5.83118 9.29073L5.83333 9.33333V14.25C5.83333 14.7375 6.2139 15.1361 6.69416 15.165L6.75 15.1667H13.25C13.7375 15.1667 14.1361 14.7861 14.165 14.3058L14.1667 14.25V9.33333C14.1667 9.10321 14.3532 8.91667 14.5833 8.91667ZM7.03011 6.71476L9.62283 4.12204C9.77471 3.97017 10.0146 3.96004 10.1783 4.09166L10.2121 4.12204L12.8048 6.71476C12.9675 6.87748 12.9675 7.1413 12.8048 7.30402C12.6529 7.45589 12.413 7.46601 12.2494 7.33439L12.2156 7.30402L10.3333 5.42167V12.1667C10.3333 12.3824 10.1694 12.5598 9.95927 12.5812L9.91667 12.5833C9.70093 12.5833 9.52349 12.4194 9.50215 12.2093L9.5 12.1667V5.423L7.61937 7.30402C7.46749 7.45589 7.22756 7.46601 7.06394 7.33439L7.03011 7.30402C6.87824 7.15215 6.86811 6.91221 6.99974 6.7486L7.03011 6.71476Z" fill="#087BE5"/>
</svg>
