<svg width="106" height="89" viewBox="0 0 106 89" fill="none" xmlns="http://www.w3.org/2000/svg">
                    <path d="M90.9228 88.2623C89.2073 88.2623 87.8167 86.8716 87.8167 85.1562V73.6635C87.8167 71.948 89.2073 70.5574 90.9228 70.5574H102.415C104.131 70.5574 105.522 71.948 105.522 73.6635V85.1562C105.522 86.8716 104.131 88.2623 102.415 88.2623H90.9228Z" fill="#6366F1" />
                    <path d="M46.2162 87.9082C19.651 87.9082 0.121302 69.0217 0 43.8797C0.121302 18.858 19.2871 0.0917969 45.3671 0.0917969C74.3317 0.0917969 84.8163 14.7971 86.5445 29.8479C86.6764 30.9959 85.7473 31.9704 84.5822 31.9704H67.9669C67.0793 31.9704 66.3042 31.394 66.0352 30.5553C64.5481 25.9186 61.647 19.8204 45.8523 19.8204C32.1451 19.8204 20.5001 26.0758 20.5001 44C20.5001 61.8039 32.0238 68.1796 45.6097 68.1796C62.6477 68.1796 65.7402 61.9562 67.344 57.3868C67.6281 56.5773 68.3888 56.0296 69.2531 56.0296H85.8275C87.0251 56.0296 87.9634 57.0601 87.7973 58.2362C85.1492 76.9796 73.779 87.9082 46.2162 87.9082Z" fill="#6366F1" />
                </svg>